<?xml version="1.0" standalone="no"?>
<!DOCTYPE svg PUBLIC "-//W3C//DTD SVG 20010904//EN"
 "http://www.w3.org/TR/2001/REC-SVG-20010904/DTD/svg10.dtd">
<svg version="1.0" xmlns="http://www.w3.org/2000/svg"
 width="800.000000pt" height="654.000000pt" viewBox="0 0 800.000000 654.000000"
 preserveAspectRatio="xMidYMid meet">

<g transform="translate(0.000000,654.000000) scale(0.100000,-0.100000)"
fill="#000000" stroke="none">
<path d="M4778 6500 c-11 -17 -20 -19 -63 -14 -54 7 -203 -5 -488 -37 l-177
-20 -22 21 c-19 17 -35 20 -112 20 -89 0 -269 -16 -489 -41 -94 -11 -110 -16
-117 -33 -20 -54 -40 -60 -326 -106 -176 -29 -184 -30 -219 -13 -34 16 -38 16
-113 -6 -42 -12 -138 -45 -212 -73 -74 -27 -170 -62 -213 -78 -42 -15 -95 -40
-117 -55 -39 -27 -80 -94 -80 -129 0 -21 -79 -199 -117 -264 l-25 -44 -34 33
c-24 24 -34 42 -34 64 0 37 -17 62 -45 67 -13 2 -22 13 -25 33 -3 18 -14 34
-26 39 -12 6 -29 26 -38 45 -27 61 -99 163 -137 193 -103 82 -284 39 -347 -82
-21 -40 -23 -56 -20 -140 3 -80 8 -102 30 -143 20 -35 25 -56 21 -81 -4 -27
-1 -36 15 -45 25 -13 37 -63 23 -90 -15 -27 14 -99 44 -111 18 -7 23 -19 28
-67 4 -32 9 -70 13 -84 6 -26 3 -27 -263 -133 -169 -67 -286 -119 -316 -141
-125 -93 -291 -459 -398 -878 -31 -122 -41 -180 -40 -236 1 -58 -16 -149 -79
-429 -44 -196 -80 -364 -80 -373 0 -9 -11 -24 -24 -32 -36 -24 -53 -86 -75
-272 -62 -520 -53 -753 33 -899 55 -94 675 -575 855 -664 74 -37 76 -37 198
-37 101 0 124 -3 128 -15 43 -152 61 -198 105 -264 62 -92 217 -241 339 -326
52 -36 112 -80 135 -97 126 -100 228 -149 391 -188 121 -29 318 -48 475 -45
454 7 575 5 625 -12 148 -49 312 -58 570 -29 177 19 217 27 320 64 26 9 127
19 286 27 223 11 249 10 271 -4 63 -41 258 -41 548 0 199 28 311 110 424 312
77 137 133 211 245 322 184 182 402 308 648 375 493 134 777 288 863 470 55
116 102 336 92 436 -3 35 63 514 71 514 16 0 47 31 65 64 30 52 47 150 67 377
28 329 33 464 17 514 -20 64 2 507 29 594 48 150 6 364 -116 593 -38 72 -149
251 -182 293 -215 277 -400 479 -471 511 -34 16 -78 24 -162 30 -160 10 -382
62 -567 131 -40 15 -53 24 -53 40 0 28 -87 133 -174 211 -182 163 -472 380
-538 402 -69 23 -190 35 -393 40 -104 3 -245 7 -313 10 -113 4 -123 3 -134
-15z m686 -30 c119 -14 187 -35 207 -63 8 -12 34 -71 57 -130 50 -129 98 -206
162 -256 95 -75 309 -172 565 -256 204 -68 329 -95 480 -104 128 -8 160 -18
207 -68 53 -56 59 -86 57 -304 -1 -198 -1 -199 -23 -194 -68 13 -194 15 -405
4 l-238 -11 -42 30 c-57 42 -151 77 -273 104 -89 19 -133 22 -328 23 -207 0
-232 -2 -307 -24 -46 -13 -118 -41 -160 -63 -71 -36 -79 -38 -88 -23 -43 73
-169 226 -251 305 -342 328 -843 494 -1439 477 -222 -7 -354 -27 -597 -92
-207 -56 -271 -79 -429 -154 -167 -79 -279 -145 -396 -234 -97 -73 -369 -311
-388 -340 -5 -8 -44 -57 -86 -108 -145 -181 -299 -432 -379 -620 l-45 -105
-110 4 c-97 3 -120 1 -188 -21 -106 -34 -204 -95 -295 -182 -61 -60 -85 -76
-122 -84 -25 -5 -90 -25 -145 -45 -55 -19 -102 -32 -104 -30 -10 10 64 298
120 468 59 178 157 401 204 462 14 18 25 36 25 40 0 18 53 74 97 102 60 39
640 267 731 288 37 8 85 26 107 39 55 32 154 137 208 220 94 147 207 381 207
431 0 29 48 85 92 107 40 20 300 118 417 158 129 44 127 45 76 -70 -24 -54
-53 -131 -66 -171 -18 -62 -20 -78 -10 -111 9 -29 18 -40 38 -45 47 -12 485
82 540 116 40 24 56 55 83 161 31 124 60 209 87 255 l23 41 103 12 c320 35
547 50 547 36 0 -3 -14 -52 -31 -108 -17 -56 -33 -136 -36 -177 -5 -65 -3 -78
14 -99 l20 -25 154 19 c101 13 220 19 346 20 165 0 195 2 209 17 9 9 41 99 70
200 30 100 60 188 68 193 16 12 528 1 660 -15z m-741 -6 c23 -4 37 -12 37 -21
0 -19 -68 -256 -87 -305 -20 -51 -51 -62 -139 -48 -73 12 -134 9 -381 -17 -84
-8 -159 -13 -167 -10 -26 10 -19 74 20 209 19 67 39 126 42 130 8 7 456 56
612 66 14 1 42 -1 63 -4z m-701 -51 c2 -10 -12 -67 -30 -128 -20 -63 -35 -134
-36 -167 -1 -64 -12 -67 -21 -5 -6 39 8 107 57 275 13 44 24 54 30 25z m1807
-115 c259 -193 505 -427 478 -454 -7 -8 -251 100 -326 145 -114 67 -181 153
-230 293 -11 29 -22 61 -26 71 -4 9 -4 17 1 17 4 0 50 -32 103 -72z m-2585
-90 c-18 -62 -40 -139 -49 -171 -24 -88 -53 -101 -346 -161 -110 -22 -170 -30
-181 -24 -26 13 -23 84 6 160 53 140 95 217 118 223 13 3 120 21 238 40 118
20 216 38 219 41 2 2 10 4 16 4 8 0 1 -38 -21 -112z m-484 43 c0 -4 -22 -55
-49 -112 -66 -141 -84 -202 -78 -255 4 -38 2 -44 -14 -44 -23 0 -39 29 -39 70
0 29 57 185 110 303 17 37 26 47 45 47 14 0 25 -4 25 -9z m1221 -366 c462 -49
835 -211 1105 -480 92 -92 234 -273 234 -299 0 -6 -21 -31 -45 -55 -101 -99
-151 -220 -143 -341 7 -87 32 -132 130 -226 78 -76 149 -125 238 -164 90 -39
84 -21 76 -235 -4 -104 -10 -210 -14 -234 l-7 -45 -87 -17 c-184 -36 -299 -91
-399 -189 -75 -74 -130 -175 -149 -277 -18 -88 -9 -226 17 -285 28 -62 105
-143 171 -180 28 -17 52 -35 52 -40 0 -15 -141 -208 -223 -305 -123 -147 -350
-349 -513 -458 -297 -197 -625 -330 -984 -397 -138 -25 -479 -36 -628 -19
-443 51 -832 236 -1118 533 -120 125 -211 257 -293 428 -58 119 -131 321 -131
359 0 10 29 44 64 75 148 130 275 325 311 477 25 110 31 293 10 385 -37 170
-108 270 -230 325 -41 19 -75 37 -75 41 0 24 104 238 172 355 161 277 300 450
506 631 232 205 350 285 577 393 178 84 231 104 409 153 192 53 271 70 391 86
50 6 97 13 105 15 46 9 355 3 471 -10z m3383 -511 c119 -135 224 -279 236
-325 15 -56 40 -243 40 -304 0 -86 -10 -83 -95 32 -109 147 -226 268 -284 294
l-46 22 8 166 c6 152 5 187 -9 261 -6 28 3 20 150 -146z m-1229 -155 c157 -22
315 -79 363 -131 21 -23 26 -24 85 -17 34 5 161 11 282 15 270 8 346 -1 421
-51 53 -35 155 -147 256 -283 74 -100 82 -115 74 -146 -6 -25 -11 -20 -80 71
-140 186 -270 297 -390 336 -54 17 -79 18 -226 13 -91 -3 -217 -12 -280 -20
l-114 -14 -41 35 c-133 114 -407 173 -664 144 -276 -32 -493 -147 -568 -299
-39 -80 -39 -174 0 -254 92 -187 411 -313 746 -295 302 17 508 120 589 295 22
47 26 72 27 138 0 74 -3 88 -37 153 -20 39 -33 71 -28 71 4 0 73 7 153 15 254
27 450 21 472 -15 3 -5 -7 -120 -22 -254 -24 -213 -26 -273 -9 -255 2 2 16
105 30 229 15 124 29 235 31 247 l5 22 38 -22 c57 -34 199 -181 282 -292 l75
-100 -2 -145 c-3 -152 -15 -261 -36 -311 l-12 -29 -50 62 c-89 111 -258 274
-313 302 -73 37 -200 49 -389 36 -199 -14 -341 -35 -361 -53 -36 -33 -172 -88
-277 -113 -134 -31 -364 -43 -468 -25 -92 16 -198 53 -262 92 -85 51 -198 152
-240 214 -37 54 -40 63 -43 139 -4 99 18 166 84 256 99 135 276 226 489 251
81 9 308 3 410 -12z m1528 -241 c144 -228 224 -454 215 -608 -3 -41 -13 -93
-22 -115 l-17 -39 -48 79 c-26 44 -73 120 -104 168 -53 81 -68 123 -50 141 6
6 69 -85 171 -248 24 -38 45 -66 48 -63 8 8 -7 34 -113 195 l-93 143 0 117 c0
104 -11 215 -26 265 -10 31 5 18 39 -35z m69 -623 c44 -71 87 -135 94 -141 12
-10 13 -41 4 -205 -6 -107 -13 -213 -16 -237 l-5 -42 -80 112 c-45 62 -90 124
-102 139 -51 63 -57 74 -51 89 25 56 36 134 41 284 5 149 8 167 20 150 8 -10
51 -77 95 -149z m-650 95 c32 -5 75 -17 95 -26 45 -22 231 -204 333 -328 l74
-89 -12 -161 c-16 -212 -60 -619 -70 -644 -6 -17 -24 2 -111 119 -143 192
-247 301 -319 335 l-57 28 -340 1 c-323 1 -343 2 -390 22 -76 32 -287 81 -397
93 -54 5 -145 10 -204 10 l-106 0 6 28 c4 15 9 121 13 235 l6 208 23 -5 c235
-59 642 0 814 119 33 23 137 42 315 58 87 8 273 6 327 -3z m-5717 -223 c101
-34 150 -69 195 -138 71 -110 85 -170 85 -359 0 -145 -3 -174 -23 -240 -30
-92 -84 -201 -130 -260 -61 -77 -216 -230 -233 -230 -9 0 -19 -6 -22 -14 -9
-23 -147 -85 -214 -95 -61 -10 -144 -3 -210 18 -59 18 -170 82 -236 136 -35
29 -68 50 -73 45 -13 -11 -192 -40 -253 -40 -30 0 -51 4 -51 11 0 8 136 624
165 746 4 18 21 27 88 47 95 29 170 47 175 41 2 -2 -7 -28 -21 -57 -69 -147
-91 -241 -91 -393 0 -223 91 -391 254 -468 118 -57 295 -49 435 18 137 66 255
188 330 340 57 115 76 185 82 310 9 183 -41 329 -152 441 -141 142 -351 173
-542 79 -76 -37 -198 -143 -247 -213 -24 -35 -33 -40 -74 -44 -27 -3 -89 -17
-140 -33 -92 -28 -109 -28 -99 -2 5 15 239 97 275 97 12 0 49 27 87 66 110
108 247 188 370 214 65 15 193 4 270 -23z m6374 -432 c51 -72 94 -145 97 -163
13 -70 -39 -690 -66 -792 l-11 -42 -78 114 c-42 62 -97 143 -122 179 l-46 67
13 75 c11 63 36 311 70 679 l6 67 23 -27 c13 -15 64 -86 114 -157z m-1704 -35
c55 -12 145 -37 200 -56 l100 -35 340 -2 c334 -2 341 -2 387 -25 76 -38 187
-158 347 -375 85 -115 85 -117 68 -141 -12 -17 -17 -14 -62 40 -190 227 -349
387 -413 416 -67 30 -266 42 -517 31 l-210 -9 -45 26 c-247 146 -626 165 -917
47 -231 -94 -361 -293 -324 -494 25 -135 102 -234 238 -306 310 -163 834 -101
1065 127 92 90 133 183 133 301 -1 94 -28 165 -90 234 -21 23 -35 45 -31 49 4
3 141 7 304 7 393 0 372 6 522 -144 65 -64 161 -168 215 -231 l97 -115 -6
-115 c-7 -129 -39 -360 -56 -405 l-11 -29 -41 49 c-75 91 -283 291 -320 308
-21 10 -38 20 -38 23 0 12 60 521 66 557 5 30 3 37 -10 37 -9 0 -16 -7 -16
-15 0 -16 -58 -528 -63 -553 -1 -11 -48 -14 -222 -17 -276 -4 -419 -22 -467
-58 -50 -39 -131 -72 -233 -95 -388 -90 -816 -28 -990 143 -96 94 -128 203
-103 352 20 117 63 206 138 286 72 77 157 129 277 167 131 42 195 49 403 45
140 -3 209 -9 285 -25z m1604 -819 c91 -135 109 -167 100 -182 -16 -31 -32
-22 -63 34 -28 50 -125 197 -175 263 -19 27 -21 35 -11 54 16 29 13 32 149
-169z m-6914 -11 c165 -79 299 -81 450 -5 38 19 69 34 70 32 1 -1 10 -31 19
-67 25 -93 101 -282 149 -370 84 -154 158 -253 296 -391 156 -156 291 -252
481 -343 564 -268 1294 -244 1925 64 252 123 385 212 590 392 181 160 263 251
406 453 54 77 87 114 96 111 162 -63 478 -85 711 -50 141 21 280 66 336 109
43 32 52 35 185 50 147 16 453 22 485 9 16 -6 17 -14 11 -73 -4 -36 -17 -124
-30 -196 -32 -173 -78 -268 -179 -370 -103 -104 -188 -144 -401 -186 -212 -41
-587 -167 -771 -259 -84 -42 -215 -150 -294 -241 -94 -109 -244 -320 -322
-451 -132 -223 -121 -218 -478 -230 -278 -10 -300 -12 -284 -28 13 -13 500 6
566 21 70 16 118 56 158 130 78 147 311 471 424 588 75 78 194 168 261 198
249 110 526 202 750 247 215 44 291 80 405 195 56 57 86 97 118 161 50 102 65
156 87 326 9 71 19 135 21 142 11 37 212 -141 350 -309 l57 -70 -6 -102 c-16
-305 -196 -554 -514 -711 -117 -58 -233 -98 -422 -146 -433 -109 -621 -242
-876 -620 -260 -385 -339 -427 -838 -448 l-157 -7 -73 54 c-119 90 -303 280
-331 342 -32 69 -41 170 -26 279 22 158 24 222 7 262 -28 68 -27 68 -357 59
-393 -10 -410 -17 -430 -177 -19 -149 -28 -349 -19 -399 15 -81 48 -136 133
-220 65 -65 209 -174 332 -252 16 -10 9 -12 -41 -13 -33 -1 -195 -7 -360 -14
l-300 -14 -125 83 c-214 141 -337 260 -361 348 -13 49 -6 414 10 490 7 33 7
54 -1 71 -20 46 -54 51 -298 48 -208 -3 -228 -5 -270 -25 -60 -29 -65 -48 -84
-298 -9 -112 -19 -215 -22 -228 l-7 -24 -176 7 c-206 7 -262 17 -308 52 -80
61 -121 150 -153 326 -28 164 -76 256 -189 368 -91 90 -170 138 -266 161 -33
7 -148 11 -331 11 -261 -1 -283 1 -313 19 -42 25 -87 98 -114 184 -20 63 -22
90 -21 260 2 259 46 682 78 744 14 27 19 29 103 35 48 4 131 15 183 24 l95 17
60 -48 c33 -27 96 -66 140 -87z m6798 64 c56 -74 146 -221 153 -249 2 -11 -11
-120 -31 -243 -19 -122 -35 -227 -35 -232 0 -19 -15 -9 -36 23 -12 18 -58 79
-104 136 l-83 104 16 66 c18 73 42 249 52 384 4 49 11 85 15 80 4 -4 28 -36
53 -69z m54 -737 c37 -53 41 -124 14 -255 -34 -164 -75 -263 -134 -328 -119
-131 -341 -237 -728 -349 -107 -31 -229 -72 -271 -90 -166 -71 -336 -193 -478
-341 -97 -101 -155 -180 -226 -307 -63 -114 -136 -194 -214 -236 -77 -41 -253
-69 -490 -77 -148 -5 -168 -4 -197 13 -45 25 -261 172 -267 181 -2 4 30 5 72
4 93 -4 310 14 407 33 39 8 107 33 152 55 118 58 202 145 340 350 165 244 249
336 398 437 135 91 262 142 508 204 352 88 540 187 712 371 125 135 198 305
212 490 l6 87 79 -102 c43 -56 90 -119 105 -140z m-6767 -507 c102 -15 201
-69 290 -159 68 -69 143 -182 129 -195 -3 -3 -41 -1 -85 4 -43 5 -167 13 -274
16 l-195 7 -40 31 c-22 16 -113 89 -203 160 -131 104 -160 132 -145 137 27 11
448 10 523 -1z m3289 -299 c37 -37 44 -91 25 -209 -23 -150 -16 -298 17 -372
31 -67 143 -188 274 -296 67 -55 91 -80 78 -81 -52 -6 -486 -33 -536 -33 -55
0 -65 4 -168 70 -167 106 -283 202 -339 280 l-18 25 177 2 c156 1 498 26 509
37 16 17 -22 20 -120 9 -62 -7 -218 -15 -347 -19 l-234 -7 6 234 c4 129 10
247 15 264 6 20 21 36 52 52 33 18 38 23 21 23 -32 0 -78 -29 -87 -54 -4 -12
-9 -135 -11 -274 l-5 -252 26 -44 c47 -80 210 -212 426 -343 l34 -22 -27 -6
c-23 -6 -43 2 -115 50 -181 121 -262 187 -334 276 -69 86 -82 136 -74 288 9
184 24 302 42 337 9 17 32 39 52 50 38 19 56 20 565 32 65 2 80 -1 96 -17z
m-1524 -50 l31 -18 -10 -99 c-5 -54 -10 -180 -10 -279 -1 -171 0 -182 23 -229
39 -79 119 -153 332 -309 23 -17 14 -17 -207 -14 l-232 4 -47 27 c-80 48 -277
201 -332 259 -29 30 -55 67 -59 83 -8 29 3 373 14 463 7 51 9 55 42 67 l35 12
-31 1 c-17 1 -37 -5 -43 -13 -18 -21 -33 -188 -35 -377 l-1 -166 30 -43 c34
-50 117 -121 258 -222 70 -51 95 -73 85 -79 -7 -5 -18 -9 -25 -9 -19 0 -263
186 -332 253 -103 101 -103 102 -86 319 24 306 25 307 54 340 35 39 80 45 321
47 174 1 198 -1 225 -18z m-1515 -12 c199 -14 186 -8 204 -89 23 -98 21 -106
-15 -114 -90 -18 -207 1 -289 46 -46 26 -260 167 -260 171 0 5 233 -4 360 -14z
m389 -500 c15 -11 47 -25 71 -30 42 -10 292 -28 382 -29 44 0 47 -2 72 -43 33
-57 116 -134 265 -243 l120 -89 -87 -3 c-48 -2 -147 2 -221 7 -153 12 -158 14
-326 139 -92 67 -253 221 -294 280 -26 37 -21 40 18 11z m3198 -489 c98 -67
112 -80 92 -84 -13 -3 -127 -10 -254 -16 -126 -7 -233 -14 -238 -17 -4 -2 -74
31 -155 74 -128 68 -143 78 -117 81 17 2 143 12 280 22 138 9 256 18 263 19 7
0 65 -35 129 -79z m-2418 35 l165 -6 88 -55 c48 -31 111 -69 140 -85 l53 -30
-140 5 c-221 9 -419 63 -556 152 l-54 35 70 -6 c39 -3 144 -7 234 -10z m292
-18 c240 -148 274 -172 245 -175 -15 -2 -35 3 -44 11 -10 7 -48 31 -87 52
-100 53 -205 123 -205 135 0 19 36 10 91 -23z m603 -62 c69 -41 130 -75 135
-75 6 0 13 -5 17 -11 5 -8 -51 -10 -197 -8 -112 2 -215 0 -229 -4 -21 -7 -48
6 -165 79 -77 47 -144 90 -148 94 -5 4 97 6 226 4 l236 -4 125 -75z m951 -9
l149 -80 -41 -13 -40 -14 -124 77 c-154 95 -154 95 -137 106 21 13 34 8 193
-76z m-91 -30 l130 -81 -50 -7 c-256 -35 -519 -36 -644 -2 -37 10 -115 46
-180 83 l-115 66 55 3 c225 12 648 27 660 23 8 -3 73 -41 144 -85z"/>
<path d="M3365 5353 c-284 -22 -575 -125 -810 -283 -173 -117 -366 -323 -493
-526 -118 -189 -179 -341 -228 -564 -24 -111 -27 -147 -28 -320 -1 -210 10
-287 60 -440 36 -107 125 -288 165 -335 174 -202 317 -308 524 -388 119 -47
224 -68 375 -77 330 -19 632 70 956 282 238 156 311 227 542 533 12 17 49 84
81 150 109 223 153 344 181 497 92 512 -56 941 -419 1214 -249 187 -587 283
-906 257z m243 -28 c179 -13 431 -100 581 -199 39 -26 71 -50 71 -53 0 -3 -15
5 -32 16 -110 72 -303 149 -458 183 -124 27 -381 29 -515 5 -279 -52 -540
-162 -733 -311 -136 -104 -300 -284 -407 -445 -166 -253 -259 -526 -285 -836
l-9 -110 4 135 c9 311 105 597 295 881 113 171 300 363 450 464 197 131 454
230 690 264 134 20 150 20 348 6z m689 -458 l22 -22 -149 -870 c-82 -478 -150
-880 -150 -892 0 -52 7 -51 -932 -128 -581 -49 -888 -70 -900 -64 -28 15 -48
51 -48 88 0 35 37 237 181 981 44 228 92 476 105 550 22 120 28 138 54 162 18
16 46 29 72 33 157 23 1678 192 1698 188 14 -2 35 -14 47 -26z"/>
<path d="M7114 4046 c-52 -314 -59 -384 -38 -364 3 4 122 686 124 716 0 1 -6
2 -13 2 -10 0 -29 -93 -73 -354z"/>
<path d="M3155 818 c-71 -5 -217 -7 -322 -5 -184 4 -237 -3 -155 -20 46 -10
380 -9 525 1 82 6 107 11 107 22 0 8 -6 13 -12 13 -7 -1 -71 -6 -143 -11z"/>
<path d="M2495 858 c-85 -10 -310 -13 -372 -4 -33 5 -53 4 -53 -2 0 -15 37
-22 145 -29 88 -5 343 11 354 23 14 13 -22 19 -74 12z"/>
</g>
</svg>
